%TF.GenerationSoftware,KiCad,Pcbnew,8.0.1*%
%TF.CreationDate,2024-07-14T19:31:33+02:00*%
%TF.ProjectId,IDE40-40,49444534-302d-4343-902e-6b696361645f,1*%
%TF.SameCoordinates,Original*%
%TF.FileFunction,Legend,Top*%
%TF.FilePolarity,Positive*%
%FSLAX46Y46*%
G04 Gerber Fmt 4.6, Leading zero omitted, Abs format (unit mm)*
G04 Created by KiCad (PCBNEW 8.0.1) date 2024-07-14 19:31:33*
%MOMM*%
%LPD*%
G01*
G04 APERTURE LIST*
%ADD10C,0.100000*%
%ADD11C,0.768420*%
%ADD12C,0.150000*%
%ADD13C,0.120000*%
G04 APERTURE END LIST*
D10*
X132872419Y-81946115D02*
X131872419Y-81946115D01*
X132872419Y-81374687D02*
X132300990Y-81803258D01*
X131872419Y-81374687D02*
X132443847Y-81946115D01*
X132348609Y-80946115D02*
X132348609Y-80612782D01*
X132872419Y-80469925D02*
X132872419Y-80946115D01*
X132872419Y-80946115D02*
X131872419Y-80946115D01*
X131872419Y-80946115D02*
X131872419Y-80469925D01*
X132396228Y-79850877D02*
X132872419Y-79850877D01*
X131872419Y-80184210D02*
X132396228Y-79850877D01*
X132396228Y-79850877D02*
X131872419Y-79517544D01*
X131500000Y-82250000D02*
X129750000Y-82250000D01*
X131500000Y-80000000D02*
X131500000Y-82250000D01*
X129750000Y-80000000D02*
X131500000Y-80000000D01*
D11*
X122050210Y-55626000D02*
G75*
G02*
X121281790Y-55626000I-384210J0D01*
G01*
X121281790Y-55626000D02*
G75*
G02*
X122050210Y-55626000I384210J0D01*
G01*
D10*
X123824419Y-55306306D02*
X123824419Y-55877734D01*
X123824419Y-55592020D02*
X122824419Y-55592020D01*
X122824419Y-55592020D02*
X122967276Y-55687258D01*
X122967276Y-55687258D02*
X123062514Y-55782496D01*
X123062514Y-55782496D02*
X123110133Y-55877734D01*
D12*
X134175380Y-56959693D02*
X133461095Y-56959693D01*
X133461095Y-56959693D02*
X133318238Y-56912074D01*
X133318238Y-56912074D02*
X133223000Y-56816836D01*
X133223000Y-56816836D02*
X133175380Y-56673979D01*
X133175380Y-56673979D02*
X133175380Y-56578741D01*
X133175380Y-57912074D02*
X133175380Y-57435884D01*
X133175380Y-57435884D02*
X134175380Y-57435884D01*
X133270619Y-58816836D02*
X133223000Y-58769217D01*
X133223000Y-58769217D02*
X133175380Y-58626360D01*
X133175380Y-58626360D02*
X133175380Y-58531122D01*
X133175380Y-58531122D02*
X133223000Y-58388265D01*
X133223000Y-58388265D02*
X133318238Y-58293027D01*
X133318238Y-58293027D02*
X133413476Y-58245408D01*
X133413476Y-58245408D02*
X133603952Y-58197789D01*
X133603952Y-58197789D02*
X133746809Y-58197789D01*
X133746809Y-58197789D02*
X133937285Y-58245408D01*
X133937285Y-58245408D02*
X134032523Y-58293027D01*
X134032523Y-58293027D02*
X134127761Y-58388265D01*
X134127761Y-58388265D02*
X134175380Y-58531122D01*
X134175380Y-58531122D02*
X134175380Y-58626360D01*
X134175380Y-58626360D02*
X134127761Y-58769217D01*
X134127761Y-58769217D02*
X134080142Y-58816836D01*
X134175380Y-59531122D02*
X133461095Y-59531122D01*
X133461095Y-59531122D02*
X133318238Y-59483503D01*
X133318238Y-59483503D02*
X133223000Y-59388265D01*
X133223000Y-59388265D02*
X133175380Y-59245408D01*
X133175380Y-59245408D02*
X133175380Y-59150170D01*
X133175380Y-60483503D02*
X133175380Y-60007313D01*
X133175380Y-60007313D02*
X134175380Y-60007313D01*
X133270619Y-61388265D02*
X133223000Y-61340646D01*
X133223000Y-61340646D02*
X133175380Y-61197789D01*
X133175380Y-61197789D02*
X133175380Y-61102551D01*
X133175380Y-61102551D02*
X133223000Y-60959694D01*
X133223000Y-60959694D02*
X133318238Y-60864456D01*
X133318238Y-60864456D02*
X133413476Y-60816837D01*
X133413476Y-60816837D02*
X133603952Y-60769218D01*
X133603952Y-60769218D02*
X133746809Y-60769218D01*
X133746809Y-60769218D02*
X133937285Y-60816837D01*
X133937285Y-60816837D02*
X134032523Y-60864456D01*
X134032523Y-60864456D02*
X134127761Y-60959694D01*
X134127761Y-60959694D02*
X134175380Y-61102551D01*
X134175380Y-61102551D02*
X134175380Y-61197789D01*
X134175380Y-61197789D02*
X134127761Y-61340646D01*
X134127761Y-61340646D02*
X134080142Y-61388265D01*
X134175380Y-62102551D02*
X133461095Y-62102551D01*
X133461095Y-62102551D02*
X133318238Y-62054932D01*
X133318238Y-62054932D02*
X133223000Y-61959694D01*
X133223000Y-61959694D02*
X133175380Y-61816837D01*
X133175380Y-61816837D02*
X133175380Y-61721599D01*
X133175380Y-63054932D02*
X133175380Y-62578742D01*
X133175380Y-62578742D02*
X134175380Y-62578742D01*
X133270619Y-63959694D02*
X133223000Y-63912075D01*
X133223000Y-63912075D02*
X133175380Y-63769218D01*
X133175380Y-63769218D02*
X133175380Y-63673980D01*
X133175380Y-63673980D02*
X133223000Y-63531123D01*
X133223000Y-63531123D02*
X133318238Y-63435885D01*
X133318238Y-63435885D02*
X133413476Y-63388266D01*
X133413476Y-63388266D02*
X133603952Y-63340647D01*
X133603952Y-63340647D02*
X133746809Y-63340647D01*
X133746809Y-63340647D02*
X133937285Y-63388266D01*
X133937285Y-63388266D02*
X134032523Y-63435885D01*
X134032523Y-63435885D02*
X134127761Y-63531123D01*
X134127761Y-63531123D02*
X134175380Y-63673980D01*
X134175380Y-63673980D02*
X134175380Y-63769218D01*
X134175380Y-63769218D02*
X134127761Y-63912075D01*
X134127761Y-63912075D02*
X134080142Y-63959694D01*
X134175380Y-64673980D02*
X133461095Y-64673980D01*
X133461095Y-64673980D02*
X133318238Y-64626361D01*
X133318238Y-64626361D02*
X133223000Y-64531123D01*
X133223000Y-64531123D02*
X133175380Y-64388266D01*
X133175380Y-64388266D02*
X133175380Y-64293028D01*
X133175380Y-65626361D02*
X133175380Y-65150171D01*
X133175380Y-65150171D02*
X134175380Y-65150171D01*
X133270619Y-66531123D02*
X133223000Y-66483504D01*
X133223000Y-66483504D02*
X133175380Y-66340647D01*
X133175380Y-66340647D02*
X133175380Y-66245409D01*
X133175380Y-66245409D02*
X133223000Y-66102552D01*
X133223000Y-66102552D02*
X133318238Y-66007314D01*
X133318238Y-66007314D02*
X133413476Y-65959695D01*
X133413476Y-65959695D02*
X133603952Y-65912076D01*
X133603952Y-65912076D02*
X133746809Y-65912076D01*
X133746809Y-65912076D02*
X133937285Y-65959695D01*
X133937285Y-65959695D02*
X134032523Y-66007314D01*
X134032523Y-66007314D02*
X134127761Y-66102552D01*
X134127761Y-66102552D02*
X134175380Y-66245409D01*
X134175380Y-66245409D02*
X134175380Y-66340647D01*
X134175380Y-66340647D02*
X134127761Y-66483504D01*
X134127761Y-66483504D02*
X134080142Y-66531123D01*
X126641666Y-55364819D02*
X126641666Y-56079104D01*
X126641666Y-56079104D02*
X126594047Y-56221961D01*
X126594047Y-56221961D02*
X126498809Y-56317200D01*
X126498809Y-56317200D02*
X126355952Y-56364819D01*
X126355952Y-56364819D02*
X126260714Y-56364819D01*
X127641666Y-56364819D02*
X127070238Y-56364819D01*
X127355952Y-56364819D02*
X127355952Y-55364819D01*
X127355952Y-55364819D02*
X127260714Y-55507676D01*
X127260714Y-55507676D02*
X127165476Y-55602914D01*
X127165476Y-55602914D02*
X127070238Y-55650533D01*
D13*
%TO.C,J1*%
X122935000Y-57480000D02*
X124375000Y-57480000D01*
X124375000Y-56910000D02*
X124375000Y-57480000D01*
X124375000Y-56910000D02*
X129575000Y-56910000D01*
X124375000Y-59000000D02*
X124375000Y-60020000D01*
X124375000Y-61540000D02*
X124375000Y-62560000D01*
X124375000Y-64080000D02*
X124375000Y-65100000D01*
X124375000Y-66620000D02*
X124375000Y-67640000D01*
X124375000Y-69160000D02*
X124375000Y-70180000D01*
X124375000Y-71700000D02*
X124375000Y-72720000D01*
X124375000Y-74240000D02*
X124375000Y-75260000D01*
X124375000Y-76780000D02*
X124375000Y-77800000D01*
X124375000Y-79320000D02*
X124375000Y-80340000D01*
X124375000Y-81860000D02*
X124375000Y-82880000D01*
X124375000Y-84400000D02*
X124375000Y-85420000D01*
X124375000Y-86940000D02*
X124375000Y-87960000D01*
X124375000Y-89480000D02*
X124375000Y-90500000D01*
X124375000Y-92020000D02*
X124375000Y-93040000D01*
X124375000Y-94560000D02*
X124375000Y-95580000D01*
X124375000Y-97100000D02*
X124375000Y-98120000D01*
X124375000Y-99640000D02*
X124375000Y-100660000D01*
X124375000Y-102180000D02*
X124375000Y-103200000D01*
X124375000Y-104720000D02*
X124375000Y-105740000D01*
X124375000Y-107260000D02*
X124375000Y-107830000D01*
X124375000Y-107830000D02*
X129575000Y-107830000D01*
X129575000Y-56910000D02*
X129575000Y-57480000D01*
X129575000Y-59000000D02*
X129575000Y-60020000D01*
X129575000Y-61540000D02*
X129575000Y-62560000D01*
X129575000Y-64080000D02*
X129575000Y-65100000D01*
X129575000Y-66620000D02*
X129575000Y-67640000D01*
X129575000Y-69160000D02*
X129575000Y-70180000D01*
X129575000Y-71700000D02*
X129575000Y-72720000D01*
X129575000Y-74240000D02*
X129575000Y-75260000D01*
X129575000Y-76780000D02*
X129575000Y-77800000D01*
X129575000Y-79320000D02*
X129575000Y-80340000D01*
X129575000Y-81860000D02*
X129575000Y-82880000D01*
X129575000Y-84400000D02*
X129575000Y-85420000D01*
X129575000Y-86940000D02*
X129575000Y-87960000D01*
X129575000Y-89480000D02*
X129575000Y-90500000D01*
X129575000Y-92020000D02*
X129575000Y-93040000D01*
X129575000Y-94560000D02*
X129575000Y-95580000D01*
X129575000Y-97100000D02*
X129575000Y-98120000D01*
X129575000Y-99640000D02*
X129575000Y-100660000D01*
X129575000Y-102180000D02*
X129575000Y-103200000D01*
X129575000Y-104720000D02*
X129575000Y-105740000D01*
X129575000Y-107260000D02*
X129575000Y-107830000D01*
%TD*%
M02*
