%TF.GenerationSoftware,KiCad,Pcbnew,8.0.1*%
%TF.CreationDate,2024-07-14T19:31:35+02:00*%
%TF.ProjectId,IDE40-40,49444534-302d-4343-902e-6b696361645f,1*%
%TF.SameCoordinates,Original*%
%TF.FileFunction,Drillmap*%
%TF.FilePolarity,Positive*%
%FSLAX45Y45*%
G04 Gerber Fmt 4.5, Leading zero omitted, Abs format (unit mm)*
G04 Created by KiCad (PCBNEW 8.0.1) date 2024-07-14 19:31:35*
%MOMM*%
%LPD*%
G01*
G04 APERTURE LIST*
%ADD10C,0.050000*%
%ADD11C,0.100000*%
%ADD12C,0.200000*%
G04 APERTURE END LIST*
D10*
X11938000Y-5486400D02*
X11938000Y-11023600D01*
X13462000Y-5486400D02*
X13462000Y-11023600D01*
X13309600Y-5334000D02*
G75*
G02*
X13462000Y-5486400I0J-152400D01*
G01*
X12090400Y-11176000D02*
G75*
G02*
X11938000Y-11023600I0J152400D01*
G01*
X11938000Y-5486400D02*
G75*
G02*
X12090400Y-5334000I152400J0D01*
G01*
D11*
X12090400Y-11176000D02*
X13309600Y-11176000D01*
D10*
X13462000Y-11023600D02*
G75*
G02*
X13309600Y-11176000I-152400J0D01*
G01*
D11*
X12090400Y-5334000D02*
X13309600Y-5334000D01*
D12*
X12196277Y-11492484D02*
X12196277Y-11292484D01*
X12196277Y-11292484D02*
X12243896Y-11292484D01*
X12243896Y-11292484D02*
X12272467Y-11302008D01*
X12272467Y-11302008D02*
X12291515Y-11321055D01*
X12291515Y-11321055D02*
X12301039Y-11340103D01*
X12301039Y-11340103D02*
X12310562Y-11378198D01*
X12310562Y-11378198D02*
X12310562Y-11406769D01*
X12310562Y-11406769D02*
X12301039Y-11444865D01*
X12301039Y-11444865D02*
X12291515Y-11463912D01*
X12291515Y-11463912D02*
X12272467Y-11482960D01*
X12272467Y-11482960D02*
X12243896Y-11492484D01*
X12243896Y-11492484D02*
X12196277Y-11492484D01*
X12396277Y-11492484D02*
X12396277Y-11359150D01*
X12396277Y-11397246D02*
X12405801Y-11378198D01*
X12405801Y-11378198D02*
X12415324Y-11368674D01*
X12415324Y-11368674D02*
X12434372Y-11359150D01*
X12434372Y-11359150D02*
X12453420Y-11359150D01*
X12520086Y-11492484D02*
X12520086Y-11359150D01*
X12520086Y-11292484D02*
X12510562Y-11302008D01*
X12510562Y-11302008D02*
X12520086Y-11311531D01*
X12520086Y-11311531D02*
X12529610Y-11302008D01*
X12529610Y-11302008D02*
X12520086Y-11292484D01*
X12520086Y-11292484D02*
X12520086Y-11311531D01*
X12643896Y-11492484D02*
X12624848Y-11482960D01*
X12624848Y-11482960D02*
X12615324Y-11463912D01*
X12615324Y-11463912D02*
X12615324Y-11292484D01*
X12748658Y-11492484D02*
X12729610Y-11482960D01*
X12729610Y-11482960D02*
X12720086Y-11463912D01*
X12720086Y-11463912D02*
X12720086Y-11292484D01*
X12977229Y-11492484D02*
X12977229Y-11292484D01*
X12977229Y-11292484D02*
X13043896Y-11435341D01*
X13043896Y-11435341D02*
X13110562Y-11292484D01*
X13110562Y-11292484D02*
X13110562Y-11492484D01*
X13291515Y-11492484D02*
X13291515Y-11387722D01*
X13291515Y-11387722D02*
X13281991Y-11368674D01*
X13281991Y-11368674D02*
X13262943Y-11359150D01*
X13262943Y-11359150D02*
X13224848Y-11359150D01*
X13224848Y-11359150D02*
X13205801Y-11368674D01*
X13291515Y-11482960D02*
X13272467Y-11492484D01*
X13272467Y-11492484D02*
X13224848Y-11492484D01*
X13224848Y-11492484D02*
X13205801Y-11482960D01*
X13205801Y-11482960D02*
X13196277Y-11463912D01*
X13196277Y-11463912D02*
X13196277Y-11444865D01*
X13196277Y-11444865D02*
X13205801Y-11425817D01*
X13205801Y-11425817D02*
X13224848Y-11416293D01*
X13224848Y-11416293D02*
X13272467Y-11416293D01*
X13272467Y-11416293D02*
X13291515Y-11406769D01*
X13386753Y-11359150D02*
X13386753Y-11559150D01*
X13386753Y-11368674D02*
X13405801Y-11359150D01*
X13405801Y-11359150D02*
X13443896Y-11359150D01*
X13443896Y-11359150D02*
X13462943Y-11368674D01*
X13462943Y-11368674D02*
X13472467Y-11378198D01*
X13472467Y-11378198D02*
X13481991Y-11397246D01*
X13481991Y-11397246D02*
X13481991Y-11454388D01*
X13481991Y-11454388D02*
X13472467Y-11473436D01*
X13472467Y-11473436D02*
X13462943Y-11482960D01*
X13462943Y-11482960D02*
X13443896Y-11492484D01*
X13443896Y-11492484D02*
X13405801Y-11492484D01*
X13405801Y-11492484D02*
X13386753Y-11482960D01*
X13567705Y-11473436D02*
X13577229Y-11482960D01*
X13577229Y-11482960D02*
X13567705Y-11492484D01*
X13567705Y-11492484D02*
X13558182Y-11482960D01*
X13558182Y-11482960D02*
X13567705Y-11473436D01*
X13567705Y-11473436D02*
X13567705Y-11492484D01*
X13567705Y-11368674D02*
X13577229Y-11378198D01*
X13577229Y-11378198D02*
X13567705Y-11387722D01*
X13567705Y-11387722D02*
X13558182Y-11378198D01*
X13558182Y-11378198D02*
X13567705Y-11368674D01*
X13567705Y-11368674D02*
X13567705Y-11387722D01*
M02*
