%TF.GenerationSoftware,KiCad,Pcbnew,8.0.1*%
%TF.CreationDate,2024-07-14T19:31:33+02:00*%
%TF.ProjectId,IDE40-40,49444534-302d-4343-902e-6b696361645f,1*%
%TF.SameCoordinates,Original*%
%TF.FileFunction,Copper,L2,Bot*%
%TF.FilePolarity,Positive*%
%FSLAX46Y46*%
G04 Gerber Fmt 4.6, Leading zero omitted, Abs format (unit mm)*
G04 Created by KiCad (PCBNEW 8.0.1) date 2024-07-14 19:31:33*
%MOMM*%
%LPD*%
G01*
G04 APERTURE LIST*
%TA.AperFunction,SMDPad,CuDef*%
%ADD10R,3.150000X1.000000*%
%TD*%
%TA.AperFunction,ViaPad*%
%ADD11C,0.600000*%
%TD*%
%TA.AperFunction,Conductor*%
%ADD12C,0.200000*%
%TD*%
G04 APERTURE END LIST*
D10*
%TO.P,J2,1,Pin_1*%
%TO.N,/1*%
X129500000Y-58250000D03*
%TO.P,J2,2,Pin_2*%
%TO.N,Net-(J1-Pin_2)*%
X124450000Y-58250000D03*
%TO.P,J2,3,Pin_3*%
%TO.N,/3*%
X129500000Y-60790000D03*
%TO.P,J2,4,Pin_4*%
%TO.N,Net-(J1-Pin_4)*%
X124450000Y-60790000D03*
%TO.P,J2,5,Pin_5*%
%TO.N,/5*%
X129500000Y-63330000D03*
%TO.P,J2,6,Pin_6*%
%TO.N,Net-(J1-Pin_6)*%
X124450000Y-63330000D03*
%TO.P,J2,7,Pin_7*%
%TO.N,/7*%
X129500000Y-65870000D03*
%TO.P,J2,8,Pin_8*%
%TO.N,Net-(J1-Pin_8)*%
X124450000Y-65870000D03*
%TO.P,J2,9,Pin_9*%
%TO.N,/9*%
X129500000Y-68410000D03*
%TO.P,J2,10,Pin_10*%
%TO.N,Net-(J1-Pin_10)*%
X124450000Y-68410000D03*
%TO.P,J2,11,Pin_11*%
%TO.N,/11*%
X129500000Y-70950000D03*
%TO.P,J2,12,Pin_12*%
%TO.N,Net-(J1-Pin_12)*%
X124450000Y-70950000D03*
%TO.P,J2,13,Pin_13*%
%TO.N,/13*%
X129500000Y-73490000D03*
%TO.P,J2,14,Pin_14*%
%TO.N,Net-(J1-Pin_14)*%
X124450000Y-73490000D03*
%TO.P,J2,15,Pin_15*%
%TO.N,/15*%
X129500000Y-76030000D03*
%TO.P,J2,16,Pin_16*%
%TO.N,Net-(J1-Pin_16)*%
X124450000Y-76030000D03*
%TO.P,J2,17,Pin_17*%
%TO.N,/17*%
X129500000Y-78570000D03*
%TO.P,J2,18,Pin_18*%
%TO.N,Net-(J1-Pin_18)*%
X124450000Y-78570000D03*
%TO.P,J2,19,Pin_19*%
%TO.N,/19*%
X129500000Y-81110000D03*
%TO.P,J2,20,Pin_20*%
%TO.N,Net-(J1-Pin_20)*%
X124450000Y-81110000D03*
%TO.P,J2,21,Pin_21*%
%TO.N,/21*%
X129500000Y-83650000D03*
%TO.P,J2,22,Pin_22*%
%TO.N,Net-(J1-Pin_22)*%
X124450000Y-83650000D03*
%TO.P,J2,23,Pin_23*%
%TO.N,/23*%
X129500000Y-86190000D03*
%TO.P,J2,24,Pin_24*%
%TO.N,Net-(J1-Pin_24)*%
X124450000Y-86190000D03*
%TO.P,J2,25,Pin_25*%
%TO.N,/25*%
X129500000Y-88730000D03*
%TO.P,J2,26,Pin_26*%
%TO.N,Net-(J1-Pin_26)*%
X124450000Y-88730000D03*
%TO.P,J2,27,Pin_27*%
%TO.N,/27*%
X129500000Y-91270000D03*
%TO.P,J2,28,Pin_28*%
%TO.N,Net-(J1-Pin_28)*%
X124450000Y-91270000D03*
%TO.P,J2,29,Pin_29*%
%TO.N,/29*%
X129500000Y-93810000D03*
%TO.P,J2,30,Pin_30*%
%TO.N,Net-(J1-Pin_30)*%
X124450000Y-93810000D03*
%TO.P,J2,31,Pin_31*%
%TO.N,/31*%
X129500000Y-96350000D03*
%TO.P,J2,32,Pin_32*%
%TO.N,Net-(J1-Pin_32)*%
X124450000Y-96350000D03*
%TO.P,J2,33,Pin_33*%
%TO.N,/33*%
X129500000Y-98890000D03*
%TO.P,J2,34,Pin_34*%
%TO.N,Net-(J1-Pin_34)*%
X124450000Y-98890000D03*
%TO.P,J2,35,Pin_35*%
%TO.N,/35*%
X129500000Y-101430000D03*
%TO.P,J2,36,Pin_36*%
%TO.N,Net-(J1-Pin_36)*%
X124450000Y-101430000D03*
%TO.P,J2,37,Pin_37*%
%TO.N,/37*%
X129500000Y-103970000D03*
%TO.P,J2,38,Pin_38*%
%TO.N,Net-(J1-Pin_38)*%
X124450000Y-103970000D03*
%TO.P,J2,39,Pin_39*%
%TO.N,/39*%
X129500000Y-106510000D03*
%TO.P,J2,40,Pin_40*%
%TO.N,Net-(J1-Pin_40)*%
X124450000Y-106510000D03*
%TD*%
D11*
%TO.N,/7*%
X127000000Y-65786000D03*
%TO.N,Net-(J1-Pin_40)*%
X125222000Y-107696000D03*
%TO.N,Net-(J1-Pin_6)*%
X125222000Y-64516000D03*
%TO.N,Net-(J1-Pin_20)*%
X125222000Y-82296000D03*
%TO.N,Net-(J1-Pin_4)*%
X125222000Y-61976000D03*
%TO.N,/17*%
X127000000Y-78486000D03*
%TO.N,/37*%
X127000000Y-103886000D03*
%TO.N,Net-(J1-Pin_30)*%
X125222000Y-94996000D03*
%TO.N,/35*%
X127000000Y-101346000D03*
%TO.N,/23*%
X127000000Y-86106000D03*
%TO.N,Net-(J1-Pin_26)*%
X125222000Y-89916000D03*
%TO.N,/19*%
X127000000Y-81026000D03*
%TO.N,/1*%
X127000000Y-58420000D03*
%TO.N,/9*%
X127000000Y-68326000D03*
%TO.N,/5*%
X127000000Y-63246000D03*
%TO.N,/21*%
X127000000Y-83820000D03*
%TO.N,/29*%
X127000000Y-93726000D03*
%TO.N,/31*%
X127000000Y-96266000D03*
%TO.N,Net-(J1-Pin_10)*%
X125222000Y-69596000D03*
%TO.N,/25*%
X127000000Y-88646000D03*
%TO.N,/39*%
X127000000Y-106426000D03*
%TO.N,Net-(J1-Pin_38)*%
X125222000Y-105156000D03*
%TO.N,Net-(J1-Pin_16)*%
X125222000Y-77216000D03*
%TO.N,Net-(J1-Pin_34)*%
X125222000Y-100076000D03*
%TO.N,/13*%
X127000000Y-73406000D03*
%TO.N,Net-(J1-Pin_14)*%
X125222000Y-74676000D03*
%TO.N,/15*%
X127000000Y-75946000D03*
%TO.N,Net-(J1-Pin_32)*%
X125222000Y-97536000D03*
%TO.N,/3*%
X127000000Y-60706000D03*
%TO.N,/33*%
X127000000Y-98806000D03*
%TO.N,Net-(J1-Pin_18)*%
X125222000Y-79756000D03*
%TO.N,Net-(J1-Pin_12)*%
X125222000Y-72136000D03*
%TO.N,Net-(J1-Pin_24)*%
X125222000Y-87376000D03*
%TO.N,Net-(J1-Pin_36)*%
X125222000Y-102616000D03*
%TO.N,Net-(J1-Pin_2)*%
X125222000Y-59436000D03*
%TO.N,Net-(J1-Pin_28)*%
X125222000Y-92456000D03*
%TO.N,Net-(J1-Pin_8)*%
X125222000Y-67056000D03*
%TO.N,/27*%
X127000000Y-91186000D03*
%TO.N,Net-(J1-Pin_22)*%
X125222000Y-84836000D03*
%TO.N,/11*%
X127000000Y-70866000D03*
%TD*%
D12*
%TO.N,/7*%
X129500000Y-65870000D02*
X127084000Y-65870000D01*
X127084000Y-65870000D02*
X127000000Y-65786000D01*
%TO.N,Net-(J1-Pin_40)*%
X125222000Y-107282000D02*
X124450000Y-106510000D01*
X125222000Y-107696000D02*
X125222000Y-107282000D01*
%TO.N,Net-(J1-Pin_6)*%
X125222000Y-64516000D02*
X125222000Y-64102000D01*
X125222000Y-64102000D02*
X124450000Y-63330000D01*
%TO.N,Net-(J1-Pin_20)*%
X125222000Y-82296000D02*
X125222000Y-81882000D01*
X125222000Y-81882000D02*
X124450000Y-81110000D01*
%TO.N,Net-(J1-Pin_4)*%
X125222000Y-61562000D02*
X124450000Y-60790000D01*
X125222000Y-61976000D02*
X125222000Y-61562000D01*
%TO.N,/17*%
X127084000Y-78570000D02*
X127000000Y-78486000D01*
X129500000Y-78570000D02*
X127084000Y-78570000D01*
%TO.N,/37*%
X129500000Y-103970000D02*
X127084000Y-103970000D01*
X127084000Y-103970000D02*
X127000000Y-103886000D01*
%TO.N,Net-(J1-Pin_30)*%
X125222000Y-94582000D02*
X124450000Y-93810000D01*
X125222000Y-94996000D02*
X125222000Y-94582000D01*
%TO.N,/35*%
X127084000Y-101430000D02*
X127000000Y-101346000D01*
X129500000Y-101430000D02*
X127084000Y-101430000D01*
%TO.N,/23*%
X127084000Y-86190000D02*
X127000000Y-86106000D01*
X129500000Y-86190000D02*
X127084000Y-86190000D01*
%TO.N,Net-(J1-Pin_26)*%
X125222000Y-89916000D02*
X125222000Y-89502000D01*
X125222000Y-89502000D02*
X124450000Y-88730000D01*
%TO.N,/19*%
X127084000Y-81110000D02*
X127000000Y-81026000D01*
X129500000Y-81110000D02*
X127084000Y-81110000D01*
%TO.N,/1*%
X127170000Y-58250000D02*
X127000000Y-58420000D01*
X129500000Y-58250000D02*
X127170000Y-58250000D01*
%TO.N,/9*%
X127084000Y-68410000D02*
X127000000Y-68326000D01*
X129500000Y-68410000D02*
X127084000Y-68410000D01*
%TO.N,/5*%
X129500000Y-63330000D02*
X127084000Y-63330000D01*
X127084000Y-63330000D02*
X127000000Y-63246000D01*
%TO.N,/21*%
X127170000Y-83650000D02*
X127000000Y-83820000D01*
X129500000Y-83650000D02*
X127170000Y-83650000D01*
%TO.N,/29*%
X127084000Y-93810000D02*
X127000000Y-93726000D01*
X129500000Y-93810000D02*
X127084000Y-93810000D01*
%TO.N,/31*%
X127084000Y-96350000D02*
X127000000Y-96266000D01*
X129500000Y-96350000D02*
X127084000Y-96350000D01*
%TO.N,Net-(J1-Pin_10)*%
X125222000Y-69596000D02*
X125222000Y-69182000D01*
X125222000Y-69182000D02*
X124450000Y-68410000D01*
%TO.N,/25*%
X129500000Y-88730000D02*
X127084000Y-88730000D01*
X127084000Y-88730000D02*
X127000000Y-88646000D01*
%TO.N,/39*%
X127084000Y-106510000D02*
X127000000Y-106426000D01*
X129500000Y-106510000D02*
X127084000Y-106510000D01*
%TO.N,Net-(J1-Pin_38)*%
X125222000Y-104742000D02*
X124450000Y-103970000D01*
X125222000Y-105156000D02*
X125222000Y-104742000D01*
%TO.N,Net-(J1-Pin_16)*%
X125222000Y-76802000D02*
X124450000Y-76030000D01*
X125222000Y-77216000D02*
X125222000Y-76802000D01*
%TO.N,Net-(J1-Pin_34)*%
X125222000Y-99662000D02*
X124450000Y-98890000D01*
X125222000Y-100076000D02*
X125222000Y-99662000D01*
%TO.N,/13*%
X127084000Y-73490000D02*
X127000000Y-73406000D01*
X129500000Y-73490000D02*
X127084000Y-73490000D01*
%TO.N,Net-(J1-Pin_14)*%
X125222000Y-74262000D02*
X124450000Y-73490000D01*
X125222000Y-74676000D02*
X125222000Y-74262000D01*
%TO.N,/15*%
X129500000Y-76030000D02*
X127084000Y-76030000D01*
X127084000Y-76030000D02*
X127000000Y-75946000D01*
%TO.N,Net-(J1-Pin_32)*%
X125222000Y-97536000D02*
X125222000Y-97122000D01*
X125222000Y-97122000D02*
X124450000Y-96350000D01*
%TO.N,/3*%
X127084000Y-60790000D02*
X127000000Y-60706000D01*
X129500000Y-60790000D02*
X127084000Y-60790000D01*
%TO.N,/33*%
X129500000Y-98890000D02*
X127084000Y-98890000D01*
X127084000Y-98890000D02*
X127000000Y-98806000D01*
%TO.N,Net-(J1-Pin_18)*%
X125222000Y-79342000D02*
X124450000Y-78570000D01*
X125222000Y-79756000D02*
X125222000Y-79342000D01*
%TO.N,Net-(J1-Pin_12)*%
X125222000Y-71722000D02*
X124450000Y-70950000D01*
X125222000Y-72136000D02*
X125222000Y-71722000D01*
%TO.N,Net-(J1-Pin_24)*%
X125222000Y-86962000D02*
X124450000Y-86190000D01*
X125222000Y-87376000D02*
X125222000Y-86962000D01*
%TO.N,Net-(J1-Pin_36)*%
X125222000Y-102616000D02*
X125222000Y-102202000D01*
X125222000Y-102202000D02*
X124450000Y-101430000D01*
%TO.N,Net-(J1-Pin_2)*%
X125222000Y-59436000D02*
X125222000Y-59022000D01*
X125222000Y-59022000D02*
X124450000Y-58250000D01*
%TO.N,Net-(J1-Pin_28)*%
X125222000Y-92456000D02*
X125222000Y-92042000D01*
X125222000Y-92042000D02*
X124450000Y-91270000D01*
%TO.N,Net-(J1-Pin_8)*%
X125222000Y-67056000D02*
X125222000Y-66642000D01*
X125222000Y-66642000D02*
X124450000Y-65870000D01*
%TO.N,/27*%
X129500000Y-91270000D02*
X127084000Y-91270000D01*
X127084000Y-91270000D02*
X127000000Y-91186000D01*
%TO.N,Net-(J1-Pin_22)*%
X125222000Y-84422000D02*
X124450000Y-83650000D01*
X125222000Y-84836000D02*
X125222000Y-84422000D01*
%TO.N,/11*%
X129500000Y-70950000D02*
X127084000Y-70950000D01*
X127084000Y-70950000D02*
X127000000Y-70866000D01*
%TD*%
M02*
