M48
; DRILL file {KiCad 8.0.1} date 2024-07-14T19:31:35+0200
; FORMAT={-:-/ absolute / inch / decimal}
; #@! TF.CreationDate,2024-07-14T19:31:35+02:00
; #@! TF.GenerationSoftware,Kicad,Pcbnew,8.0.1
; #@! TF.FileFunction,Plated,1,2,PTH
FMAT,2
INCH
; #@! TA.AperFunction,Plated,PTH,ViaDrill
T1C0.0118
%
G90
G05
T1
X4.93Y-2.34
X4.93Y-2.44
X4.93Y-2.54
X4.93Y-2.64
X4.93Y-2.74
X4.93Y-2.84
X4.93Y-2.94
X4.93Y-3.04
X4.93Y-3.14
X4.93Y-3.24
X4.93Y-3.34
X4.93Y-3.44
X4.93Y-3.54
X4.93Y-3.64
X4.93Y-3.74
X4.93Y-3.84
X4.93Y-3.94
X4.93Y-4.04
X4.93Y-4.14
X4.93Y-4.24
X5.0Y-2.3
X5.0Y-2.39
X5.0Y-2.49
X5.0Y-2.59
X5.0Y-2.69
X5.0Y-2.79
X5.0Y-2.89
X5.0Y-2.99
X5.0Y-3.09
X5.0Y-3.19
X5.0Y-3.3
X5.0Y-3.39
X5.0Y-3.49
X5.0Y-3.59
X5.0Y-3.69
X5.0Y-3.79
X5.0Y-3.89
X5.0Y-3.99
X5.0Y-4.09
X5.0Y-4.19
M30
